<svg width="76" height="28" viewBox="0 0 76 28" fill="none" xmlns="http://www.w3.org/2000/svg">
<path d="M14.48 15.16C14.68 15.08 14.8467 15.04 14.98 15.04C15.1933 15.04 15.3533 15.12 15.46 15.28C15.5667 15.44 15.62 15.6467 15.62 15.9C15.62 16.3 15.52 16.64 15.32 16.92C15.1333 17.2 14.8067 17.4533 14.34 17.68C13.5533 18.0533 12.5333 18.3533 11.28 18.58C10.0267 18.7933 8.79334 18.9 7.58001 18.9C5.90001 18.9 4.49334 18.7133 3.36001 18.34C2.22667 17.9533 1.38001 17.4267 0.820005 16.76C0.273338 16.0933 4.90993e-06 15.34 4.90993e-06 14.5C4.90993e-06 13.3533 0.366672 12.38 1.1 11.58C1.84667 10.7667 2.94 10.18 4.38 9.81999C3.59334 9.59332 2.98667 9.19332 2.56001 8.61999C2.14667 8.04665 1.94001 7.40665 1.94001 6.69999C1.94001 5.73999 2.24001 4.89332 2.84001 4.15999C3.45334 3.41332 4.27334 2.83999 5.3 2.43999C6.32667 2.03999 7.45334 1.83999 8.68001 1.83999C10.3333 1.83999 11.5733 2.19999 12.4 2.91999C13.2267 3.62665 13.64 4.54665 13.64 5.67999C13.64 6.46665 13.4933 7.10665 13.2 7.59999C12.92 8.07999 12.5133 8.31999 11.98 8.31999C11.6067 8.31999 11.3133 8.23999 11.1 8.07999C10.8867 7.90665 10.78 7.65332 10.78 7.31999C10.78 7.09332 10.8133 6.84665 10.88 6.57999C10.9467 6.13999 10.98 5.83999 10.98 5.67999C10.98 5.19999 10.8 4.81332 10.44 4.51999C10.08 4.21332 9.48001 4.05999 8.64001 4.05999C7.50667 4.05999 6.60001 4.29999 5.92001 4.77999C5.24001 5.25999 4.90001 5.90665 4.90001 6.71999C4.90001 7.34665 5.15334 7.86665 5.66001 8.27999C6.18001 8.67999 7.02001 8.89999 8.18001 8.93999C8.47334 8.95332 8.68001 9.01999 8.80001 9.13999C8.92001 9.25999 8.98001 9.45999 8.98001 9.73999C8.98001 10.62 8.58001 11.0667 7.78001 11.08C6.67334 11.1067 5.75334 11.26 5.02 11.54C4.30001 11.82 3.77334 12.18 3.44001 12.62C3.12001 13.0467 2.96 13.5067 2.96 14C2.96 14.8267 3.34667 15.4533 4.12001 15.88C4.89334 16.2933 6.12001 16.5 7.80001 16.5C8.90667 16.5 10.0733 16.3733 11.3 16.12C12.54 15.8533 13.6 15.5333 14.48 15.16ZM25.3909 14.34C25.5643 14.34 25.6976 14.42 25.7909 14.58C25.8976 14.74 25.9509 14.96 25.9509 15.24C25.9509 15.7733 25.8243 16.1867 25.5709 16.48C24.9843 17.1733 24.3376 17.7533 23.6309 18.22C22.9376 18.6733 22.1509 18.9 21.2709 18.9C20.5909 18.9 19.9843 18.7733 19.4509 18.52C18.9309 18.2667 18.5176 17.9067 18.2109 17.44C17.4509 18.4 16.5509 18.88 15.5109 18.88C14.7776 18.88 14.1976 18.6667 13.7709 18.24C13.3443 17.8133 13.1309 17.2467 13.1309 16.54C13.1309 15.8733 13.2843 15.3333 13.5909 14.92C13.8976 14.5067 14.3309 14.3 14.8909 14.3C15.3709 14.3 15.6109 14.48 15.6109 14.84C15.6109 14.9333 15.5976 15.1 15.5709 15.34C15.5309 15.82 15.5109 16.0933 15.5109 16.16C15.5109 16.56 15.6843 16.76 16.0309 16.76C16.2843 16.76 16.5243 16.6133 16.7509 16.32C16.9909 16.0133 17.1843 15.6 17.3309 15.08C17.4909 14.56 17.5709 13.9867 17.5709 13.36C17.5709 12.88 17.5109 12.48 17.3909 12.16C17.2709 11.8267 17.1243 11.66 16.9509 11.66C16.8043 11.66 16.6976 11.7 16.6309 11.78C16.5643 11.8467 16.4976 11.9667 16.4309 12.14C16.3509 12.3533 16.2443 12.5267 16.1109 12.66C15.9776 12.78 15.7443 12.84 15.4109 12.84C15.1176 12.84 14.8843 12.74 14.7109 12.54C14.5376 12.3267 14.4509 12.0067 14.4509 11.58C14.4509 10.9 14.6576 10.3667 15.0709 9.97999C15.4843 9.59332 16.0176 9.39999 16.6709 9.39999C17.2309 9.39999 17.7376 9.53999 18.1909 9.81999C18.6443 10.0867 18.9909 10.48 19.2309 11C19.6309 10.4667 20.0776 10.0667 20.5709 9.79999C21.0776 9.53332 21.5709 9.39999 22.0509 9.39999C22.5709 9.39999 22.9643 9.51999 23.2309 9.75999C23.5109 9.99999 23.6509 10.3867 23.6509 10.92C23.6509 11.52 23.5376 11.9933 23.3109 12.34C23.0843 12.6733 22.8109 12.84 22.4909 12.84C22.1976 12.84 21.9976 12.78 21.8909 12.66C21.7843 12.54 21.7043 12.3667 21.6509 12.14C21.6243 11.98 21.5843 11.86 21.5309 11.78C21.4776 11.7 21.3843 11.66 21.2509 11.66C21.0909 11.66 20.9176 11.8133 20.7309 12.12C20.5576 12.4133 20.4043 12.8067 20.2709 13.3C20.1509 13.7933 20.0909 14.3067 20.0909 14.84C20.0909 15.4667 20.2376 15.9533 20.5309 16.3C20.8376 16.6333 21.2509 16.8 21.7709 16.8C22.2909 16.8 22.7776 16.6267 23.2309 16.28C23.6976 15.92 24.2376 15.3667 24.8509 14.62C25.0109 14.4333 25.1909 14.34 25.3909 14.34ZM35.1075 14.34C35.2808 14.34 35.4142 14.42 35.5075 14.58C35.6142 14.74 35.6675 14.96 35.6675 15.24C35.6675 15.7733 35.5408 16.1867 35.2875 16.48C34.7142 17.1867 34.0942 17.7667 33.4275 18.22C32.7742 18.6733 32.0275 18.9 31.1875 18.9C30.4808 18.9 29.9075 18.6467 29.4675 18.14C28.7075 18.6333 27.9142 18.8867 27.0875 18.9C26.9142 21.4733 26.5208 23.62 25.9075 25.34C25.2942 27.0733 24.3942 27.94 23.2075 27.94C22.4875 27.94 21.9542 27.68 21.6075 27.16C21.2608 26.64 21.0875 25.92 21.0875 25C21.0875 23.6933 21.3875 22.1667 21.9875 20.42C22.5875 18.6867 23.5142 16.7733 24.7675 14.68C24.7675 12.7333 24.7542 11.38 24.7275 10.62C24.7142 10.2333 24.8675 9.92665 25.1875 9.69999C25.5075 9.47332 25.9075 9.35999 26.3875 9.35999C26.6675 9.35999 26.8675 9.41999 26.9875 9.53999C27.1208 9.64665 27.1942 9.86665 27.2075 10.2C27.2075 10.5333 27.2142 10.78 27.2275 10.94C27.6542 10.4067 28.0742 10.0267 28.4875 9.79999C28.9008 9.55999 29.3408 9.43999 29.8075 9.43999C30.5542 9.43999 31.1608 9.73999 31.6275 10.34C32.1075 10.94 32.3475 11.7267 32.3475 12.7C32.3475 13.4067 32.2342 14.0933 32.0075 14.76C31.7808 15.4267 31.4675 16.0333 31.0675 16.58C31.3475 16.66 31.5808 16.7 31.7675 16.7C32.2075 16.7 32.6275 16.54 33.0275 16.22C33.4275 15.9 33.9408 15.3667 34.5675 14.62C34.7275 14.4333 34.9075 14.34 35.1075 14.34ZM27.1875 16.98C27.6675 16.8733 28.1075 16.6133 28.5075 16.2C28.9208 15.7733 29.2475 15.2533 29.4875 14.64C29.7275 14.0133 29.8475 13.36 29.8475 12.68C29.8475 12.28 29.7675 11.98 29.6075 11.78C29.4475 11.5667 29.2342 11.46 28.9675 11.46C28.4875 11.46 27.9075 11.9667 27.2275 12.98C27.2142 13.5667 27.2075 14.4267 27.2075 15.56C27.2075 16.1733 27.2008 16.6467 27.1875 16.98ZM23.3675 25.98C23.7275 25.98 24.0275 25.1933 24.2675 23.62C24.5075 22.06 24.6608 20.1133 24.7275 17.78C24.1542 19.1133 23.7008 20.3867 23.3675 21.6C23.0342 22.8133 22.8675 23.8333 22.8675 24.66C22.8675 25.0867 22.9208 25.4133 23.0275 25.64C23.1208 25.8667 23.2342 25.98 23.3675 25.98ZM41.3364 14.34C41.5097 14.34 41.6431 14.42 41.7364 14.58C41.8431 14.74 41.8964 14.96 41.8964 15.24C41.8964 15.7733 41.7697 16.1867 41.5164 16.48C40.9431 17.1867 40.3164 17.7667 39.6364 18.22C38.9697 18.6733 38.2097 18.9 37.3564 18.9C36.1831 18.9 35.3097 18.3667 34.7364 17.3C34.1764 16.2333 33.8964 14.8533 33.8964 13.16C33.8964 11.5333 34.1031 9.67999 34.5164 7.59999C34.9431 5.51999 35.5631 3.73332 36.3764 2.23999C37.2031 0.746653 38.1831 -1.33514e-05 39.3164 -1.33514e-05C39.9564 -1.33514e-05 40.4564 0.299987 40.8164 0.899987C41.1897 1.48665 41.3764 2.33332 41.3764 3.43999C41.3764 5.02665 40.9364 6.86665 40.0564 8.95999C39.1764 11.0533 37.9831 13.1267 36.4764 15.18C36.5697 15.7267 36.7231 16.12 36.9364 16.36C37.1497 16.5867 37.4297 16.7 37.7764 16.7C38.3231 16.7 38.8031 16.5467 39.2164 16.24C39.6297 15.92 40.1564 15.38 40.7964 14.62C40.9564 14.4333 41.1364 14.34 41.3364 14.34ZM38.8764 1.97999C38.5697 1.97999 38.2231 2.53332 37.8364 3.63999C37.4497 4.74665 37.1097 6.11999 36.8164 7.75999C36.5231 9.39999 36.3631 10.9733 36.3364 12.48C37.2831 10.92 38.0364 9.35999 38.5964 7.79999C39.1564 6.22665 39.4364 4.79332 39.4364 3.49999C39.4364 2.48665 39.2497 1.97999 38.8764 1.97999ZM50.1798 12.66C50.3532 12.66 50.4865 12.7467 50.5798 12.92C50.6732 13.0933 50.7198 13.3133 50.7198 13.58C50.7198 14.22 50.5265 14.6 50.1398 14.72C49.3398 15 48.4598 15.16 47.4998 15.2C47.2465 16.32 46.7465 17.22 45.9998 17.9C45.2532 18.5667 44.4065 18.9 43.4598 18.9C42.6598 18.9 41.9732 18.7067 41.3998 18.32C40.8398 17.9333 40.4132 17.42 40.1198 16.78C39.8265 16.14 39.6798 15.4467 39.6798 14.7C39.6798 13.6867 39.8732 12.7867 40.2598 12C40.6465 11.2 41.1798 10.58 41.8598 10.14C42.5398 9.68665 43.2932 9.45999 44.1198 9.45999C45.1332 9.45999 45.9465 9.81332 46.5598 10.52C47.1865 11.2133 47.5532 12.0733 47.6598 13.1C48.2865 13.06 49.0332 12.9267 49.8998 12.7C50.0065 12.6733 50.0998 12.66 50.1798 12.66ZM43.6198 16.78C44.0465 16.78 44.4132 16.6067 44.7198 16.26C45.0398 15.9133 45.2532 15.4133 45.3598 14.76C44.9465 14.48 44.6265 14.1133 44.3998 13.66C44.1865 13.2067 44.0798 12.7267 44.0798 12.22C44.0798 12.0067 44.0998 11.7933 44.1398 11.58H44.0398C43.5065 11.58 43.0598 11.84 42.6998 12.36C42.3532 12.8667 42.1798 13.5867 42.1798 14.52C42.1798 15.2533 42.3198 15.8133 42.5998 16.2C42.8932 16.5867 43.2332 16.78 43.6198 16.78ZM50.1233 18.9C49.6166 18.9 49.2566 18.6333 49.0433 18.1C48.8433 17.5667 48.7433 16.7133 48.7433 15.54C48.7433 13.8067 48.99 12.16 49.4833 10.6C49.6033 10.2133 49.7966 9.93332 50.0633 9.75999C50.3433 9.57332 50.73 9.47999 51.2233 9.47999C51.49 9.47999 51.6766 9.51332 51.7833 9.57999C51.89 9.64665 51.9433 9.77332 51.9433 9.95999C51.9433 10.1733 51.8433 10.6533 51.6433 11.4C51.51 11.9333 51.4033 12.4 51.3233 12.8C51.2433 13.2 51.1766 13.6933 51.1233 14.28C51.5633 13.1333 52.0566 12.2 52.6033 11.48C53.15 10.76 53.6833 10.2467 54.2033 9.93999C54.7366 9.63332 55.2233 9.47999 55.6633 9.47999C56.53 9.47999 56.9633 9.91332 56.9633 10.78C56.9633 10.9533 56.9033 11.3733 56.7833 12.04C56.6766 12.5733 56.6233 12.9067 56.6233 13.04C56.6233 13.5067 56.79 13.74 57.1233 13.74C57.4966 13.74 57.9766 13.4467 58.5633 12.86C58.7366 12.6867 58.9166 12.6 59.1033 12.6C59.2766 12.6 59.41 12.68 59.5033 12.84C59.61 12.9867 59.6633 13.1867 59.6633 13.44C59.6633 13.9333 59.53 14.32 59.2633 14.6C58.89 14.9867 58.45 15.32 57.9433 15.6C57.45 15.8667 56.9233 16 56.3633 16C55.6566 16 55.1166 15.82 54.7433 15.46C54.3833 15.1 54.2033 14.6133 54.2033 14C54.2033 13.8 54.2233 13.6 54.2633 13.4C54.29 13.1333 54.3033 12.9533 54.3033 12.86C54.3033 12.6467 54.23 12.54 54.0833 12.54C53.8833 12.54 53.6166 12.7667 53.2833 13.22C52.9633 13.66 52.6433 14.2467 52.3233 14.98C52.0033 15.7133 51.7433 16.4867 51.5433 17.3C51.3966 17.9267 51.2233 18.3533 51.0233 18.58C50.8366 18.7933 50.5366 18.9 50.1233 18.9ZM59.9648 18.9C59.1382 18.9 58.4782 18.6 57.9848 18C57.4915 17.4 57.2448 16.6133 57.2448 15.64C57.2448 14.5733 57.4915 13.5667 57.9848 12.62C58.4782 11.66 59.1315 10.8933 59.9448 10.32C60.7715 9.73332 61.6448 9.43999 62.5648 9.43999C62.8582 9.43999 63.0515 9.49999 63.1448 9.61999C63.2515 9.72665 63.3382 9.92665 63.4048 10.22C63.6848 10.1667 63.9782 10.14 64.2848 10.14C64.9382 10.14 65.2648 10.3733 65.2648 10.84C65.2648 11.12 65.1648 11.7867 64.9649 12.84C64.6582 14.3733 64.5049 15.44 64.5049 16.04C64.5049 16.24 64.5515 16.4 64.6449 16.52C64.7515 16.64 64.8848 16.7 65.0448 16.7C65.2982 16.7 65.6048 16.54 65.9648 16.22C66.3248 15.8867 66.8115 15.3533 67.4248 14.62C67.5849 14.4333 67.7649 14.34 67.9649 14.34C68.1382 14.34 68.2715 14.42 68.3648 14.58C68.4715 14.74 68.5249 14.96 68.5249 15.24C68.5249 15.7733 68.3982 16.1867 68.1449 16.48C67.5982 17.16 67.0182 17.7333 66.4049 18.2C65.7915 18.6667 65.1982 18.9 64.6248 18.9C64.1848 18.9 63.7782 18.7533 63.4048 18.46C63.0448 18.1533 62.7715 17.74 62.5848 17.22C61.8915 18.34 61.0182 18.9 59.9648 18.9ZM60.6848 16.88C60.9782 16.88 61.2582 16.7067 61.5248 16.36C61.7915 16.0133 61.9848 15.5533 62.1048 14.98L62.8448 11.3C62.2848 11.3133 61.7648 11.5267 61.2848 11.94C60.8182 12.34 60.4448 12.8733 60.1648 13.54C59.8848 14.2067 59.7448 14.9133 59.7448 15.66C59.7448 16.0733 59.8248 16.38 59.9848 16.58C60.1582 16.78 60.3915 16.88 60.6848 16.88ZM74.6794 12.22C74.9727 12.22 75.2194 12.3267 75.4194 12.54C75.6327 12.74 75.7394 12.9933 75.7394 13.3C75.7394 13.4733 75.6994 13.66 75.6194 13.86C75.406 14.3533 75.106 14.7667 74.7194 15.1C74.3327 15.4333 73.906 15.6 73.4394 15.6C73.066 15.6 72.746 15.4667 72.4794 15.2C72.226 14.9333 72.0994 14.5733 72.0994 14.12C72.0994 13.8667 72.1127 13.5933 72.1394 13.3C72.166 13.0867 72.1794 12.94 72.1794 12.86C72.1794 12.7533 72.1527 12.6733 72.0994 12.62C72.0594 12.5667 72.006 12.54 71.9394 12.54C71.7527 12.54 71.4994 12.7667 71.1794 13.22C70.8594 13.66 70.5394 14.2467 70.2194 14.98C69.8994 15.7133 69.6394 16.4867 69.4394 17.3C69.2927 17.94 69.126 18.3667 68.9394 18.58C68.7527 18.7933 68.446 18.9 68.0194 18.9C67.5127 18.9 67.1527 18.6333 66.9394 18.1C66.7394 17.5667 66.6394 16.7133 66.6394 15.54C66.6394 13.8067 66.886 12.16 67.3794 10.6C67.4994 10.2133 67.6927 9.93332 67.9594 9.75999C68.2394 9.57332 68.626 9.47999 69.1194 9.47999C69.386 9.47999 69.5727 9.51332 69.6794 9.57999C69.786 9.64665 69.8394 9.77332 69.8394 9.95999C69.8394 10.1733 69.7394 10.6533 69.5394 11.4C69.406 11.9333 69.2994 12.4 69.2194 12.8C69.1394 13.2 69.0727 13.6933 69.0194 14.28C69.4594 13.1333 69.9527 12.2 70.4994 11.48C71.046 10.76 71.5794 10.2467 72.0994 9.93999C72.6194 9.63332 73.0927 9.47999 73.5194 9.47999C73.906 9.47999 74.1994 9.59332 74.3994 9.81999C74.6127 10.0333 74.7194 10.3533 74.7194 10.78C74.7194 11.0333 74.646 11.5133 74.4994 12.22H74.6794Z" fill="white"/>
</svg>
